<?xml version="1.0" standalone="no"?>
<!DOCTYPE svg PUBLIC "-//W3C//DTD SVG 20010904//EN"
 "http://www.w3.org/TR/2001/REC-SVG-20010904/DTD/svg10.dtd">
<svg version="1.0" xmlns="http://www.w3.org/2000/svg"
 width="600.000000pt" height="600.000000pt" viewBox="0 0 600.000000 600.000000"
 preserveAspectRatio="xMidYMid meet">
<metadata>
Created by potrace 1.14, written by Peter Selinger 2001-2017
</metadata>
<g transform="translate(0.000000,600.000000) scale(0.100000,-0.100000)"
fill="#000000" stroke="none">
<path d="M1244 4856 c-3 -8 -12 -12 -20 -9 -8 3 -14 1 -14 -5 0 -5 -11 -13
-24 -16 -54 -14 -135 -116 -139 -177 -1 -16 -5 -29 -8 -29 -11 0 -6 -85 5 -92
8 -6 8 -8 -1 -8 -15 0 -14 -60 1 -60 8 0 8 -3 0 -8 -14 -10 -15 -114 0 -105 6
4 5 -1 -3 -10 -11 -14 -11 -20 0 -34 8 -10 9 -14 2 -10 -14 9 -13 -120 1 -142
6 -9 5 -12 -2 -7 -13 8 -11 -72 2 -93 6 -9 5 -12 -1 -8 -15 9 -13 -86 1 -95 8
-5 7 -8 -1 -8 -17 0 -17 -32 0 -49 6 -8 7 -11 1 -8 -8 5 -11 -10 -11 -43 0
-30 4 -50 11 -50 7 0 7 -3 -1 -8 -14 -9 -13 -89 1 -111 6 -10 5 -12 -2 -7 -13
8 -11 -61 2 -83 6 -9 5 -12 -1 -8 -7 4 -11 -14 -11 -53 0 -33 5 -63 10 -66 5
-3 5 -11 0 -17 -14 -19 -13 -59 1 -50 7 4 6 0 -2 -10 -11 -14 -11 -20 0 -34 8
-10 9 -14 2 -10 -14 9 -13 -120 1 -142 6 -9 5 -12 -2 -7 -13 8 -11 -72 2 -93
6 -9 5 -12 -1 -8 -15 9 -13 -86 1 -95 8 -5 7 -8 -1 -8 -7 0 -13 -8 -13 -18 0
-10 6 -24 13 -31 6 -8 7 -11 1 -8 -8 5 -11 -10 -11 -43 0 -30 4 -50 11 -50 7
0 7 -3 -1 -8 -14 -9 -13 -89 1 -111 6 -10 5 -12 -2 -7 -13 8 -11 -61 2 -83 6
-9 5 -12 -1 -8 -7 4 -11 -14 -11 -53 0 -33 5 -63 10 -66 5 -3 5 -11 0 -17 -14
-19 -13 -59 1 -50 7 4 6 0 -2 -10 -11 -14 -11 -20 0 -34 8 -10 9 -14 2 -10
-14 9 -13 -120 1 -142 6 -10 6 -12 -2 -7 -13 8 -11 -61 2 -83 6 -9 5 -12 -1
-8 -7 4 -11 -14 -11 -53 0 -33 5 -63 10 -66 5 -3 5 -11 0 -17 -14 -19 -13 -59
1 -50 7 4 6 0 -2 -10 -11 -14 -11 -20 0 -34 8 -10 9 -14 2 -10 -15 10 -15 -52
1 -72 8 -11 8 -13 0 -8 -8 5 -12 -11 -12 -53 0 -33 5 -63 10 -66 5 -3 5 -11 0
-17 -14 -19 -13 -59 1 -50 7 4 6 0 -2 -10 -11 -14 -11 -20 0 -34 8 -10 9 -14
2 -10 -15 10 -15 -52 1 -72 8 -11 8 -13 0 -8 -8 4 -11 -14 -11 -58 0 -44 3
-62 11 -58 6 4 5 -1 -3 -10 -11 -13 -11 -17 -1 -17 8 0 11 -3 7 -6 -3 -4 0
-19 9 -35 8 -16 12 -29 9 -29 -6 0 30 -44 61 -74 27 -28 64 -57 64 -51 0 2 16
-3 35 -11 19 -8 37 -14 40 -14 3 0 6 0 8 -1 1 -1 48 -2 104 -3 66 -2 100 1 96
7 -4 6 -1 7 8 1 23 -14 62 -17 53 -3 -5 8 -3 9 7 3 21 -12 120 -14 112 -1 -4
6 -1 7 8 1 22 -13 81 -16 73 -2 -5 7 -3 8 7 2 22 -13 81 -16 73 -2 -5 7 -3 8
7 2 18 -11 81 -16 75 -6 -2 4 7 7 21 6 61 -2 147 47 189 108 16 24 31 45 34
48 7 7 11 27 14 72 2 21 6 41 8 44 3 3 2 21 -2 40 -5 20 -4 34 2 34 5 0 6 5 2
12 -11 18 -11 78 -1 78 5 0 5 6 -2 13 -8 10 -7 17 1 25 7 7 8 12 2 12 -9 0
-11 31 -4 50 5 14 4 47 -2 61 -4 8 -3 21 2 29 4 7 5 22 1 34 -5 11 -5 34 -1
52 4 18 4 38 -1 45 -4 7 -3 21 2 31 5 10 6 18 1 18 -9 0 -7 60 2 86 2 6 0 17
-4 24 -5 8 -4 22 1 32 5 10 6 18 2 18 -9 0 -9 98 0 106 2 3 1 21 -3 40 -5 20
-4 34 2 34 5 0 6 5 2 12 -11 17 -12 78 -1 78 5 0 5 6 -2 13 -8 10 -7 17 1 25
7 7 8 12 2 12 -11 0 -12 35 -1 46 3 4 2 14 -3 23 -5 10 -5 23 -1 30 5 7 5 28
1 47 -5 20 -4 34 2 34 5 0 6 5 2 12 -11 17 -12 78 -1 78 5 0 5 6 -2 13 -8 10
-7 17 1 25 7 7 8 12 2 12 -6 0 -10 10 -8 23 1 12 3 22 4 22 6 0 4 58 -1 67 -4
7 -3 20 2 30 5 10 6 18 1 18 -9 0 -7 60 2 86 2 6 0 17 -4 24 -5 8 -4 22 1 32
5 10 6 18 1 18 -5 0 -8 12 -6 28 3 25 4 54 4 95 0 9 0 23 1 30 0 6 -1 31 -3
55 -2 24 -1 48 3 53 3 6 3 26 -1 45 -5 20 -4 34 2 34 5 0 6 5 2 12 -11 17 -12
78 -1 78 5 0 5 6 -2 13 -8 10 -7 17 1 25 7 7 8 12 2 12 -9 0 -11 31 -4 50 5
14 4 47 -2 61 -4 8 -3 21 2 29 4 7 5 22 1 34 -5 11 -5 34 -1 52 4 18 4 38 -1
45 -4 7 -3 21 2 31 5 10 6 18 1 18 -9 0 -7 60 2 86 2 6 0 17 -4 24 -5 8 -4 22
1 32 5 10 6 18 2 18 -9 0 -9 98 0 106 2 3 1 21 -3 40 -5 20 -4 34 2 34 5 0 6
5 2 12 -11 17 -12 78 -1 78 5 0 5 6 -2 13 -8 10 -7 17 1 25 7 7 8 12 2 12 -11
0 -12 35 -1 46 3 4 2 14 -3 23 -5 10 -5 23 -1 30 5 7 5 28 1 47 -5 20 -4 34 1
34 6 0 6 7 0 18 -6 10 -6 24 -1 32 5 8 6 19 2 24 -6 11 -7 18 -13 74 -2 17 -7
32 -11 32 -4 0 -8 7 -8 15 0 21 -86 104 -116 111 -13 3 -24 10 -24 15 0 5 -12
9 -26 9 -14 0 -23 4 -19 9 9 16 -664 14 -683 -1 -12 -10 -14 -10 -8 0 4 6 5
12 1 12 -3 0 -8 -6 -11 -14z"/>
<path d="M2660 4861 c-8 -4 -41 -20 -72 -36 -32 -15 -58 -32 -58 -37 0 -5 -4
-6 -10 -3 -5 3 -10 0 -10 -7 0 -8 -9 -20 -19 -28 -11 -7 -18 -17 -15 -21 2 -4
-2 -13 -9 -21 -7 -7 -12 -20 -12 -28 1 -8 -3 -20 -7 -26 -11 -15 -16 -164 -5
-164 4 0 7 -5 7 -11 0 -5 -4 -8 -8 -5 -4 2 -7 -14 -5 -37 5 -56 5 -55 0 -110
-2 -26 0 -50 5 -53 5 -3 6 -10 3 -15 -12 -18 -14 -49 -3 -49 7 0 6 -6 -2 -15
-9 -11 -9 -15 -1 -15 7 0 9 -5 5 -11 -9 -16 -11 -159 -1 -159 4 0 7 -5 7 -11
0 -5 -4 -8 -8 -5 -4 2 -7 -14 -5 -37 5 -56 5 -55 0 -110 -2 -26 0 -50 5 -53 5
-3 6 -10 3 -15 -12 -18 -14 -49 -3 -49 7 0 6 -6 -2 -15 -9 -11 -9 -15 -1 -15
7 0 9 -5 5 -11 -9 -16 -11 -159 -1 -159 4 0 7 -5 7 -11 0 -5 -4 -8 -8 -5 -4 2
-7 -14 -5 -37 5 -56 5 -55 0 -110 -2 -26 0 -50 5 -53 5 -3 6 -10 3 -15 -12
-18 -14 -49 -3 -49 7 0 6 -6 -2 -15 -9 -11 -9 -15 -1 -15 7 0 9 -5 5 -11 -9
-16 -11 -159 -1 -159 4 0 7 -5 7 -11 0 -5 -4 -8 -8 -5 -4 2 -7 -14 -5 -37 5
-56 5 -55 0 -110 -2 -26 0 -50 5 -53 5 -3 6 -10 3 -15 -12 -18 -14 -49 -3 -49
7 0 6 -6 -2 -15 -10 -12 -10 -15 0 -15 9 0 10 -3 1 -13 -6 -8 -8 -17 -4 -21 4
-4 9 -18 11 -33 4 -36 40 -103 54 -103 6 0 9 -3 5 -6 -7 -8 17 -34 32 -34 6 0
11 -4 11 -9 0 -9 62 -42 95 -50 11 -2 62 -5 112 -5 51 -1 93 -5 93 -9 0 -4 8
-4 18 1 9 5 26 8 37 5 22 -4 46 -4 178 0 48 1 87 -1 87 -4 0 -4 16 -3 35 1 21
5 35 4 35 -2 0 -5 5 -6 12 -2 6 4 31 8 54 10 73 4 116 25 177 86 31 32 55 58
52 58 -2 0 0 12 6 27 6 15 12 45 14 66 2 21 6 41 9 45 3 5 1 14 -4 22 -5 8 -5
22 1 32 7 13 6 18 -2 18 -8 0 -8 4 1 15 9 11 9 15 1 15 -8 0 -9 5 -2 19 6 10
8 21 4 24 -10 10 -10 51 0 65 5 7 6 12 1 12 -5 0 -8 28 -6 63 4 72 4 93 -1
127 -2 14 1 31 6 38 5 6 6 12 1 12 -8 0 -9 28 -4 120 1 14 0 40 -2 58 -3 17
-1 32 2 32 3 0 6 9 6 20 0 11 -4 20 -9 20 -5 0 -4 7 3 15 9 11 9 15 1 15 -8 0
-9 5 -2 19 6 10 8 21 4 24 -10 10 -10 51 0 65 5 7 6 12 1 12 -5 0 -8 28 -6 63
4 72 4 93 -1 127 -2 14 1 31 6 38 5 6 6 12 1 12 -8 0 -9 28 -4 120 1 14 0 40
-2 58 -3 17 -1 32 4 32 4 0 5 6 3 13 -9 23 -11 82 -4 103 4 11 3 27 -1 34 -5
8 -4 22 1 32 6 10 6 18 1 18 -10 0 -7 54 3 71 4 5 2 9 -2 9 -5 0 -8 19 -7 43
2 23 3 53 4 67 1 14 0 40 -2 58 -3 17 -2 32 1 32 5 0 5 61 1 68 -2 1 -3 10 -4
20 -5 44 -28 101 -50 125 -13 14 -21 28 -18 31 3 3 -1 6 -9 6 -9 0 -24 8 -35
18 -25 23 -58 38 -90 41 -8 0 -13 5 -9 11 7 11 -663 13 -685 1z"/>
<path d="M4054 4855 c-4 -8 -10 -12 -15 -10 -4 3 -27 -5 -50 -17 -23 -13 -50
-27 -60 -33 -11 -5 -19 -15 -19 -22 0 -7 -9 -17 -20 -23 -11 -6 -18 -15 -15
-20 3 -4 -1 -15 -9 -23 -8 -8 -12 -17 -9 -21 3 -3 0 -12 -7 -21 -7 -8 -9 -15
-5 -15 4 0 2 -7 -5 -15 -9 -11 -9 -15 -1 -15 8 0 9 -6 4 -17 -11 -22 -10 -74
0 -90 5 -7 4 -13 -1 -13 -10 0 -9 -30 2 -48 4 -6 3 -12 -2 -12 -10 0 -9 -30 2
-48 4 -6 3 -12 -2 -12 -10 0 -9 -30 2 -48 4 -6 3 -12 -2 -12 -10 0 -9 -30 2
-48 4 -6 3 -12 -2 -12 -10 0 -9 -30 2 -48 4 -6 3 -12 -2 -12 -10 0 -9 -30 2
-48 4 -6 3 -12 -2 -12 -10 0 -9 -30 2 -48 4 -6 3 -12 -2 -12 -10 0 -9 -30 2
-48 4 -6 3 -12 -2 -12 -10 0 -9 -30 2 -48 4 -6 3 -12 -2 -12 -10 0 -9 -30 2
-48 4 -6 3 -12 -2 -12 -10 0 -9 -30 2 -48 4 -6 3 -12 -2 -12 -10 0 -9 -30 2
-48 4 -7 2 -12 -3 -12 -7 0 -8 -6 -2 -17 5 -10 15 -38 22 -62 7 -24 19 -45 26
-48 7 -3 13 -11 13 -19 0 -8 5 -14 11 -14 5 0 7 -6 3 -12 -4 -7 -4 -10 1 -6 4
4 22 -4 39 -17 35 -27 77 -45 121 -52 41 -7 635 -9 635 -3 0 5 22 9 63 10 10
1 21 8 24 16 3 7 9 11 15 8 5 -3 16 2 23 12 8 11 15 16 15 12 0 -4 16 10 36
30 33 34 62 85 67 122 2 8 6 21 11 29 5 8 3 16 -5 22 -10 6 -10 9 -2 9 14 0
13 26 -1 49 -6 9 -5 12 2 7 7 -4 10 4 10 24 -1 16 -6 30 -12 30 -7 0 -8 3 -1
8 15 10 18 65 3 56 -7 -5 -8 -3 -2 7 5 8 10 25 12 37 2 17 -1 22 -10 16 -10
-6 -10 -4 1 9 11 14 11 20 0 34 -8 9 -9 14 -2 10 15 -9 13 65 -2 75 -6 5 -6 8
2 8 15 0 14 60 -1 60 -7 0 -8 3 -1 8 15 10 18 65 3 56 -7 -5 -8 -3 -2 7 5 8
10 25 12 37 2 17 -1 22 -10 16 -10 -6 -10 -4 1 9 11 14 11 20 0 34 -8 9 -9 14
-2 10 15 -9 13 65 -2 75 -7 5 -6 8 2 8 6 0 11 15 11 35 0 24 -4 33 -11 28 -7
-4 -6 1 2 10 11 14 11 20 0 34 -10 11 -10 14 -1 9 6 -4 12 -3 12 1 0 5 -6 15
-12 22 -8 9 -9 12 -1 7 6 -3 3 12 -8 33 -10 22 -19 44 -19 49 0 24 -120 128
-133 115 -4 -3 -7 0 -7 7 0 7 -3 11 -6 7 -4 -3 -19 0 -35 8 -42 22 -687 22
-695 0z"/>
</g>
</svg>
