<?xml version="1.0" standalone="no"?>
<!DOCTYPE svg PUBLIC "-//W3C//DTD SVG 20010904//EN"
 "http://www.w3.org/TR/2001/REC-SVG-20010904/DTD/svg10.dtd">
<svg version="1.0" xmlns="http://www.w3.org/2000/svg"
 width="512.000000pt" height="512.000000pt" viewBox="0 0 512.000000 512.000000"
 preserveAspectRatio="xMidYMid meet">
<metadata>
Created by potrace 1.14, written by Peter Selinger 2001-2017
</metadata>
<g transform="translate(0.000000,512.000000) scale(0.100000,-0.100000)"
fill="#000000" stroke="none">
<path d="M1955 5114 c-126 -19 -264 -68 -368 -131 -70 -42 -206 -168 -248
-229 l-28 -41 -113 -6 c-135 -7 -225 -30 -347 -91 -224 -113 -392 -317 -463
-561 l-23 -80 0 -725 0 -725 22 -41 c12 -23 45 -62 74 -88 67 -60 134 -81 236
-72 l73 6 2 -978 3 -977 24 -55 c71 -161 209 -276 369 -309 74 -15 2120 -15
2194 0 138 29 273 129 338 251 52 97 60 143 60 351 l0 187 275 0 c160 0 296 5
327 11 180 37 337 185 384 363 20 76 20 1888 0 1961 -52 188 -195 324 -384
364 -32 7 -163 11 -327 11 l-275 0 0 147 0 146 59 61 c95 100 141 213 141 345
-1 95 -13 149 -53 230 -60 121 -190 223 -328 256 -81 19 -147 19 -228 0 l-65
-16 -25 33 c-125 164 -357 238 -540 174 -44 -15 -45 -15 -77 14 -150 131 -344
207 -549 214 -60 3 -123 2 -140 0z m247 -209 c107 -22 241 -91 324 -168 106
-98 117 -101 202 -61 160 76 327 16 414 -149 27 -49 40 -64 70 -75 35 -14 40
-13 103 18 130 63 250 50 348 -40 163 -149 122 -400 -82 -494 -65 -30 -187
-29 -255 2 -63 28 -98 28 -133 -2 l-28 -24 -5 -467 -5 -467 -33 -29 c-44 -39
-90 -39 -134 0 l-33 29 -5 309 c-5 271 -8 313 -25 353 -70 169 -204 249 -442
266 -115 9 -167 -8 -248 -78 -33 -28 -85 -63 -115 -77 -48 -23 -68 -26 -160
-26 -93 0 -111 3 -160 26 -30 15 -83 49 -117 77 -76 62 -146 87 -217 78 -69
-8 -120 -46 -168 -126 -93 -154 -255 -259 -401 -260 -48 0 -102 -23 -116 -48
-7 -14 -11 -156 -11 -429 0 -249 -4 -422 -10 -445 -22 -79 -111 -104 -172 -49
l-33 29 0 669 c0 749 -2 722 74 878 89 180 249 312 446 366 61 16 110 22 205
23 69 1 130 5 137 9 6 4 32 38 57 76 70 104 168 191 278 246 148 73 293 92
450 60z m1358 -2747 l0 -1558 -160 0 c-174 0 -203 -7 -226 -51 -23 -45 -17
-78 20 -115 l34 -34 161 0 162 0 -16 -31 c-27 -50 -86 -109 -139 -137 l-51
-27 -1060 -3 c-1199 -3 -1123 -7 -1216 76 -28 25 -59 62 -70 83 l-19 39 749 0
c560 0 757 3 776 12 29 13 55 55 55 88 0 33 -26 75 -55 88 -19 9 -217 12 -780
12 l-755 0 0 1364 0 1364 43 6 c54 8 179 63 241 105 71 49 157 141 197 210 19
33 39 61 45 61 6 0 29 -14 50 -30 147 -113 239 -151 389 -158 160 -7 285 35
412 138 69 55 88 59 199 39 78 -14 149 -54 177 -98 21 -35 22 -48 27 -341 l5
-306 33 -66 c32 -66 78 -113 135 -139 l26 -12 3 -834 3 -835 33 -29 c44 -39
90 -39 134 0 l33 29 3 835 3 835 29 12 c47 19 109 87 138 148 l27 57 3 380 4
380 99 0 99 0 0 -1557z m800 1135 c69 -22 150 -96 181 -165 l24 -53 0 -920 0
-920 -24 -53 c-31 -69 -112 -143 -181 -165 -44 -14 -96 -17 -326 -17 l-274 0
0 100 0 99 276 3 276 3 24 28 24 28 0 894 0 894 -24 28 -24 28 -276 3 -276 3
0 99 0 100 274 0 c230 0 282 -3 326 -17z m-190 -1138 l0 -755 -205 0 -205 0 0
755 0 755 205 0 205 0 0 -755z"/>
<path d="M1410 3103 c-25 -13 -39 -29 -48 -57 -10 -31 -12 -244 -10 -1008 l3
-970 33 -29 c44 -39 90 -39 134 0 l33 29 3 967 c2 659 -1 979 -8 1006 -17 64
-81 92 -140 62z"/>
<path d="M2210 3103 c-25 -13 -39 -29 -48 -57 -10 -31 -12 -244 -10 -1008 l3
-970 33 -29 c44 -39 90 -39 134 0 l33 29 3 967 c2 659 -1 979 -8 1006 -17 64
-81 92 -140 62z"/>
<path d="M2824 601 c-30 -13 -64 -59 -64 -88 0 -32 26 -80 49 -93 25 -13 77
-13 102 0 24 13 49 61 49 94 0 56 -83 109 -136 87z"/>
</g>
</svg>
